<mxfile host="Electron" agent="Mozilla/5.0 (Windows NT 10.0; Win64; x64) AppleWebKit/537.36 (KHTML, like Gecko) draw.io/24.7.17 Chrome/128.0.6613.36 Electron/32.0.1 Safari/537.36" version="24.7.17">
  <diagram name="Page-1" id="_5hZXXRVccbdJ9T4yZlO">
    <mxGraphModel dx="1734" dy="1375" grid="1" gridSize="10" guides="1" tooltips="1" connect="1" arrows="1" fold="1" page="1" pageScale="1" pageWidth="1000" pageHeight="1000" math="0" shadow="0">
      <root>
        <mxCell id="0" />
        <mxCell id="1" parent="0" />
        <mxCell id="raQx97Tm-MKQ5Np3jPyw-2" value="VPC" style="sketch=0;outlineConnect=0;gradientColor=none;html=1;whiteSpace=wrap;fontSize=12;fontStyle=0;shape=mxgraph.aws4.group;grIcon=mxgraph.aws4.group_vpc;strokeColor=#879196;fillColor=none;verticalAlign=top;align=left;spacingLeft=30;fontColor=#879196;dashed=0;" vertex="1" parent="1">
          <mxGeometry x="40" y="40" width="440" height="440" as="geometry" />
        </mxCell>
        <mxCell id="raQx97Tm-MKQ5Np3jPyw-4" value="Availability Zone" style="rounded=1;arcSize=10;dashed=1;strokeColor=#F59D56;fillColor=none;gradientColor=none;dashPattern=8 4;strokeWidth=2;fontStyle=1;verticalAlign=top;spacing=3.937;fontSize=14;" vertex="1" parent="1">
          <mxGeometry x="80" y="80" width="360" height="360" as="geometry" />
        </mxCell>
        <mxCell id="raQx97Tm-MKQ5Np3jPyw-5" value="Public subnet" style="sketch=0;outlineConnect=0;gradientColor=none;html=1;whiteSpace=wrap;fontSize=12;fontStyle=0;shape=mxgraph.aws4.group;grIcon=mxgraph.aws4.group_subnet;strokeColor=#879196;fillColor=none;verticalAlign=top;align=left;spacingLeft=30;fontColor=#879196;dashed=0;" vertex="1" parent="1">
          <mxGeometry x="120" y="120" width="280" height="120" as="geometry" />
        </mxCell>
        <mxCell id="raQx97Tm-MKQ5Np3jPyw-6" value="Private subnet" style="sketch=0;outlineConnect=0;gradientColor=none;html=1;whiteSpace=wrap;fontSize=12;fontStyle=0;shape=mxgraph.aws4.group;grIcon=mxgraph.aws4.group_subnet;strokeColor=#879196;fillColor=none;verticalAlign=top;align=left;spacingLeft=30;fontColor=#879196;dashed=0;" vertex="1" parent="1">
          <mxGeometry x="120" y="280" width="280" height="120" as="geometry" />
        </mxCell>
        <mxCell id="raQx97Tm-MKQ5Np3jPyw-11" value="" style="sketch=0;outlineConnect=0;fontColor=#232F3E;gradientColor=none;fillColor=#ED7100;strokeColor=none;dashed=0;verticalLabelPosition=bottom;verticalAlign=top;align=center;html=1;fontSize=12;fontStyle=0;aspect=fixed;pointerEvents=1;shape=mxgraph.aws4.instance2;" vertex="1" parent="1">
          <mxGeometry x="320" y="150" width="54" height="54" as="geometry" />
        </mxCell>
        <mxCell id="raQx97Tm-MKQ5Np3jPyw-12" value="" style="group" vertex="1" connectable="0" parent="1">
          <mxGeometry x="450" y="224" width="140" height="72" as="geometry" />
        </mxCell>
        <mxCell id="raQx97Tm-MKQ5Np3jPyw-7" value="" style="outlineConnect=0;dashed=0;verticalLabelPosition=bottom;verticalAlign=top;align=center;html=1;shape=mxgraph.aws3.internet_gateway;fillColor=#F58534;gradientColor=none;" vertex="1" parent="raQx97Tm-MKQ5Np3jPyw-12">
          <mxGeometry width="69" height="72" as="geometry" />
        </mxCell>
        <mxCell id="raQx97Tm-MKQ5Np3jPyw-9" value="Internet&lt;br&gt;&lt;div style=&quot;&quot;&gt;&lt;span style=&quot;background-color: initial;&quot;&gt;Gateway&lt;/span&gt;&lt;/div&gt;" style="text;html=1;align=left;verticalAlign=middle;whiteSpace=wrap;rounded=0;fontStyle=1;fontSize=14;" vertex="1" parent="raQx97Tm-MKQ5Np3jPyw-12">
          <mxGeometry x="80" y="21" width="60" height="30" as="geometry" />
        </mxCell>
        <mxCell id="raQx97Tm-MKQ5Np3jPyw-14" style="edgeStyle=orthogonalEdgeStyle;rounded=0;orthogonalLoop=1;jettySize=auto;html=1;" edge="1" parent="1" source="raQx97Tm-MKQ5Np3jPyw-13" target="raQx97Tm-MKQ5Np3jPyw-11">
          <mxGeometry relative="1" as="geometry" />
        </mxCell>
        <mxCell id="raQx97Tm-MKQ5Np3jPyw-13" value="This EC2 instance has either a public or elastic IP address." style="shape=note;strokeWidth=2;fontSize=14;size=20;whiteSpace=wrap;html=1;fillColor=#fff2cc;strokeColor=#d6b656;fontColor=#666600;" vertex="1" parent="1">
          <mxGeometry x="530" y="50" width="160" height="80" as="geometry" />
        </mxCell>
      </root>
    </mxGraphModel>
  </diagram>
</mxfile>
